<svg width="33" height="34" viewBox="0 0 33 34" fill="none" xmlns="http://www.w3.org/2000/svg">
<path d="M24.7229 32.7251H8.81042C7.82505 32.7308 6.84959 32.5282 5.94796 32.1307C5.04633 31.7331 4.23887 31.1495 3.5785 30.4182C2.91812 29.6868 2.41974 28.8242 2.11599 27.8868C1.81224 26.9494 1.70999 25.9583 1.81594 24.9787L2.95254 14.487C3.13838 12.7681 3.9542 11.179 5.24261 10.0262C6.53101 8.87346 8.2007 8.23868 9.92954 8.24438H23.6037C25.3356 8.23435 27.0096 8.86718 28.3017 10.0204C29.5938 11.1736 30.4121 12.7651 30.5982 14.487L31.7348 24.9787C31.841 25.9598 31.7383 26.9523 31.4335 27.891C31.1287 28.8296 30.6287 29.6931 29.9665 30.4247C29.3042 31.1564 28.4946 31.7396 27.5908 32.1361C26.6871 32.5325 25.7097 32.7333 24.7229 32.7251Z" stroke="#303037" stroke-width="2" stroke-linecap="round" stroke-linejoin="round"/>
<path d="M22.0078 15.239H22.0253" stroke="#303037" stroke-width="2" stroke-linecap="round" stroke-linejoin="round"/>
<path d="M11.5156 15.239H11.5331" stroke="#303037" stroke-width="2" stroke-linecap="round" stroke-linejoin="round"/>
<path d="M11.5215 8.24448V6.49586C11.5215 5.10457 12.0742 3.77027 13.058 2.78648C14.0418 1.80269 15.3761 1.25 16.7673 1.25C18.1586 1.25 19.4929 1.80269 20.4767 2.78648C21.4605 3.77027 22.0132 5.10457 22.0132 6.49586V8.24448" stroke="#303037" stroke-width="2" stroke-linecap="round" stroke-linejoin="round"/>
</svg>
