<svg width="32" height="30" viewBox="0 0 32 30" fill="none" xmlns="http://www.w3.org/2000/svg">
<path d="M16.9333 28.1979C16.3246 28.3814 15.6754 28.3814 15.0667 28.1979C10.7167 26.6646 1 20.5312 1 9.99788C1 8.24886 1.55031 6.54418 2.57298 5.1253C3.59565 3.70642 5.03884 2.64528 6.6981 2.09219C8.35737 1.5391 10.1486 1.5221 11.8181 2.0436C13.4875 2.56511 14.9506 3.59867 16 4.99788C17.0494 3.59867 18.5125 2.56511 20.1819 2.0436C21.8514 1.5221 23.6426 1.5391 25.3019 2.09219C26.9612 2.64528 28.4043 3.70642 29.427 5.1253C30.4497 6.54418 31 8.24886 31 9.99788C31 20.5312 21.2833 26.6646 16.9333 28.1979Z" stroke="#303037" stroke-width="2" stroke-linecap="round" stroke-linejoin="round"/>
</svg>
